<svg width="52" height="60" viewBox="0 0 52 60" fill="none" xmlns="http://www.w3.org/2000/svg">
<path d="M50.0801 6.13993L50.0799 6.13952C49.7553 5.79375 42.0055 -2.29469 31.1033 0.640188C26.3262 1.92591 22.8228 5.19732 20.6908 10.363C20.1622 11.644 18.5586 12.1683 14.971 12.2332C14.8071 12.2363 14.6433 12.2437 14.4814 12.2513C14.1998 12.2643 13.6763 12.2889 13.6003 12.2176C13.387 12.0187 13.311 11.7118 13.4067 11.4353C13.9448 9.88039 14.6271 8.73664 15.1056 8.05043C15.8908 6.9227 15.7205 5.37154 14.7095 4.44208L13.438 3.27347L12.4635 2.36516C11.8375 1.78106 10.9935 1.52425 10.1478 1.658C9.30344 1.79236 8.58127 2.2986 8.16626 3.04767C7.15975 4.86613 5.60859 7.79279 5.00168 8.95606L4.8819 9.18412C0.247931 17.9853 -0.509364 26.8324 2.63097 35.4803C5.48182 43.33 10.1022 50.157 15.6414 54.703C19.8937 58.1926 24.2583 60 28.288 59.9998C29.6763 59.9998 31.0253 59.7851 32.3157 59.351C37.1584 57.7211 40.5157 52.2056 41.7694 43.82C42.8433 36.6374 42.1472 28.1252 39.9528 21.6053C38.6533 17.7445 35.3996 15.1015 30.0058 13.5253C29.7531 13.4516 29.5507 13.2691 29.4507 13.0248C29.3504 12.7799 29.3665 12.5079 29.4947 12.2788C30.4262 10.6139 31.6998 9.58351 33.3888 9.12905C39.1897 7.56721 43.5003 11.9781 43.67 12.1554C45.3286 13.9229 48.116 14.0106 49.8833 12.3526C51.65 10.6944 51.7385 7.90703 50.0801 6.13993ZM47.7739 10.1058C47.2457 10.6011 46.4128 10.575 45.9058 10.0351C45.6734 9.79266 40.1319 4.12075 32.5871 6.15329C30.0896 6.82532 28.144 8.38018 26.8047 10.7741C26.2152 11.8275 26.14 13.0733 26.5982 14.1926C27.0557 15.3099 27.9823 16.145 29.1409 16.4834C33.5564 17.7737 36.0638 19.7137 37.0313 22.5884C39.0796 28.6739 39.7268 36.6348 38.7209 43.3643C37.6626 50.4436 34.9693 55.206 31.332 56.4301C27.3982 57.7542 22.3916 56.2563 17.5963 52.3206C12.4783 48.1204 8.19215 41.7659 5.52743 34.4284C2.69589 26.6311 3.39587 18.6209 7.60846 10.6202L7.73378 10.3813C8.38856 9.12659 9.74845 6.56768 10.6635 4.90065L12.4177 6.52187C11.843 7.3821 11.0911 8.70274 10.4942 10.4275C10.0003 11.855 10.3948 13.4425 11.4987 14.4718C12.5235 15.4274 13.7377 15.3707 14.6246 15.3298C14.7578 15.3236 14.8926 15.3171 15.0271 15.3148C17.4757 15.2704 22.0339 15.188 23.5396 11.539C25.287 7.30567 28.1013 4.63993 31.9044 3.61616C41.0398 1.15752 47.5564 7.95407 47.8331 8.24869C48.3284 8.77691 48.3019 9.61002 47.7739 10.1058Z" fill="black"/>
<path d="M9.16353 26.678C9.06553 25.9279 8.37685 25.3974 7.62839 25.4962C6.87788 25.5936 6.34843 26.2808 6.44581 27.0312C6.49923 27.4437 7.81967 37.2053 13.3706 43.4505C13.6377 43.7506 14.0067 43.9057 14.3791 43.9103C14.7083 43.9142 15.0397 43.8001 15.3053 43.5643C15.8709 43.0613 15.9219 42.1954 15.4191 41.6295C10.4367 36.0246 9.17565 26.7706 9.16353 26.678Z" fill="black"/>
<path d="M17.7718 48.1374C18.5706 48.1374 19.2181 47.4898 19.2181 46.691C19.2181 45.8922 18.5706 45.2446 17.7718 45.2446C16.9729 45.2446 16.3254 45.8922 16.3254 46.691C16.3254 47.4898 16.9729 48.1374 17.7718 48.1374Z" fill="black"/>
</svg>
