<svg width="60" height="60" viewBox="0 0 60 60" fill="none" xmlns="http://www.w3.org/2000/svg">
<path d="M54.0801 6.13993L54.0799 6.13952C53.7553 5.79375 46.0054 -2.29469 35.1033 0.640188C30.3261 1.92591 26.8228 5.19732 24.6908 10.363C24.1622 11.644 22.5586 12.1683 18.971 12.2332C18.8071 12.2363 18.6433 12.2437 18.4814 12.2513C18.1997 12.2643 17.6762 12.2889 17.6002 12.2176C17.387 12.0187 17.311 11.7118 17.4067 11.4353C17.9448 9.88039 18.6271 8.73664 19.1056 8.05043C19.8908 6.9227 19.7205 5.37154 18.7095 4.44208L17.4379 3.27347L16.4635 2.36516C15.8375 1.78106 14.9935 1.52425 14.1478 1.658C13.3034 1.79236 12.5812 2.2986 12.1662 3.04767C11.1597 4.86613 9.60856 7.79279 9.00165 8.95606L8.88187 9.18412C4.2479 17.9853 3.49061 26.8324 6.63094 35.4803C9.48179 43.33 14.1022 50.157 19.6414 54.703C23.8936 58.1926 28.2583 60 32.288 59.9998C33.6762 59.9998 35.0252 59.7851 36.3157 59.351C41.1584 57.7211 44.5157 52.2056 45.7693 43.82C46.8432 36.6374 46.1472 28.1252 43.9527 21.6053C42.6533 17.7445 39.3995 15.1015 34.0058 13.5253C33.7531 13.4516 33.5507 13.2691 33.4506 13.0248C33.3504 12.7799 33.3664 12.5079 33.4946 12.2788C34.4261 10.6139 35.6997 9.58351 37.3888 9.12905C43.1897 7.56721 47.5003 11.9781 47.67 12.1554C49.3286 13.9229 52.116 14.0106 53.8833 12.3526C55.6499 10.6944 55.7385 7.90703 54.0801 6.13993ZM51.7739 10.1058C51.2457 10.6011 50.4128 10.575 49.9057 10.0351C49.6733 9.79266 44.1319 4.12075 36.5871 6.15329C34.0896 6.82532 32.144 8.38018 30.8046 10.7741C30.2152 11.8275 30.14 13.0733 30.5982 14.1926C31.0557 15.3099 31.9823 16.145 33.1408 16.4834C37.5564 17.7737 40.0637 19.7137 41.0312 22.5884C43.0796 28.6739 43.7267 36.6348 42.7208 43.3643C41.6626 50.4436 38.9693 55.206 35.332 56.4301C31.3982 57.7542 26.3915 56.2563 21.5963 52.3206C16.4783 48.1204 12.1921 41.7659 9.5274 34.4284C6.69586 26.6311 7.39584 18.6209 11.6084 10.6202L11.7338 10.3813C12.3885 9.12659 13.7484 6.56768 14.6635 4.90065L16.4176 6.52187C15.843 7.3821 15.091 8.70274 14.4942 10.4275C14.0003 11.855 14.3948 13.4425 15.4987 14.4718C16.5235 15.4274 17.7377 15.3707 18.6246 15.3298C18.7577 15.3236 18.8925 15.3171 19.0271 15.3148C21.4757 15.2704 26.0338 15.188 27.5396 11.539C29.287 7.30567 32.1012 4.63993 35.9044 3.61616C45.0398 1.15752 51.5563 7.95407 51.8331 8.24869C52.3284 8.77691 52.3019 9.61002 51.7739 10.1058Z" fill="white"/>
<path d="M13.1635 26.6782C13.0655 25.9281 12.3768 25.3976 11.6283 25.4965C10.8778 25.5938 10.3484 26.2811 10.4457 27.0314C10.4992 27.4439 11.8196 37.2056 17.3705 43.4507C17.6376 43.7509 18.0066 43.906 18.3791 43.9105C18.7082 43.9144 19.0396 43.8004 19.3053 43.5645C19.8709 43.0616 19.9218 42.1956 19.4191 41.6298C14.4367 36.0249 13.1756 26.7709 13.1635 26.6782Z" fill="white"/>
<path d="M21.7717 48.1376C22.5705 48.1376 23.2181 47.4901 23.2181 46.6912C23.2181 45.8924 22.5705 45.2449 21.7717 45.2449C20.9729 45.2449 20.3253 45.8924 20.3253 46.6912C20.3253 47.4901 20.9729 48.1376 21.7717 48.1376Z" fill="white"/>
</svg>
