<svg width="27" height="27" viewBox="0 0 27 27" fill="none" xmlns="http://www.w3.org/2000/svg">
<g clip-path="url(#clip0_204_2)">
<path d="M26.6405 24.905L18.2724 16.5368C19.6393 14.7976 20.4554 12.6062 20.4554 10.2277C20.4554 4.58812 15.8673 0 10.2277 0C4.58812 0 0 4.58812 0 10.2278C0 15.8672 4.58812 20.4554 10.2277 20.4554C12.6061 20.4554 14.7976 19.6392 16.5368 18.2724L24.9049 26.6405C25.1445 26.8802 25.4586 27 25.7727 27C26.0868 27 26.4009 26.8802 26.6405 26.6405C27.1199 26.1613 27.1199 25.3842 26.6405 24.905ZM2.45455 10.2278C2.45455 5.94155 5.94155 2.45455 10.2277 2.45455C14.5139 2.45455 18.0009 5.94155 18.0009 10.2277C18.0009 14.5138 14.5139 18.0008 10.2277 18.0008C5.94155 18.0008 2.45455 14.5138 2.45455 10.2278Z" fill="#DF1E6F"/>
<path d="M12.6823 9.00044H11.455V7.77317C11.455 7.09539 10.9055 6.5459 10.2277 6.5459C9.54993 6.5459 9.00044 7.09539 9.00044 7.77317V9.00044H7.77317C7.09539 9.00044 6.5459 9.54993 6.5459 10.2277C6.5459 10.9055 7.09539 11.455 7.77317 11.455H9.00044V12.6823C9.00044 13.36 9.54993 13.9095 10.2277 13.9095C10.9055 13.9095 11.455 13.36 11.455 12.6823V11.455H12.6823C13.36 11.455 13.9095 10.9055 13.9095 10.2277C13.9095 9.54993 13.36 9.00044 12.6823 9.00044Z" fill="#DF1E6F"/>
</g>
<defs>
<clipPath id="clip0_204_2">
<rect width="27" height="27" fill="white"/>
</clipPath>
</defs>
</svg>
