<svg width="27" height="27" viewBox="0 0 27 27" fill="none" xmlns="http://www.w3.org/2000/svg">
<path d="M19.6122 2.31603H14.5301V0H7.62885V2.31603H2.54675V5.97291H19.6122V2.31603ZM9.45729 1.82844H12.7017V2.31603H9.45729V1.82844Z" fill="#DF1E6F"/>
<path d="M17.9884 13.0617L18.3333 7.80127H3.82568L4.98467 25.4762H11.9432C11.0375 24.1922 10.5047 22.6271 10.5047 20.9398C10.5047 16.7259 13.826 13.2731 17.9884 13.0617Z" fill="#DF1E6F"/>
<path d="M18.3933 14.8799C15.0518 14.8799 12.3333 17.5984 12.3333 20.9399C12.3333 24.2814 15.0518 27 18.3933 27C21.7348 27 24.4534 24.2814 24.4534 20.9399C24.4534 17.5984 21.7348 14.8799 18.3933 14.8799ZM21.6952 22.9489L20.4023 24.2418L18.3933 22.2328L16.3843 24.2418L15.0914 22.9489L17.1004 20.9399L15.0914 18.9309L16.3843 17.638L18.3933 19.647L20.4023 17.638L21.6952 18.9309L19.6862 20.9399L21.6952 22.9489Z" fill="#DF1E6F"/>
</svg>
