<svg width="27" height="27" viewBox="0 0 27 27" fill="none" xmlns="http://www.w3.org/2000/svg">
<g clip-path="url(#clip0_14_201)">
<path d="M14.101 26.7519C14.1103 26.7426 20.0029 20.8887 20.0029 20.8887C20.1743 20.7174 20.2544 20.4921 20.2485 20.2684C20.2485 20.2617 20.2528 20.2558 20.2528 20.249V0.836768C20.2528 0.0940457 19.3168 -0.27728 18.7952 0.24179L13.4824 5.50988L8.23197 0.302474C7.71038 -0.257918 6.74744 -0.00725697 6.74912 1.01566V20.2414C6.7339 20.476 6.80819 20.7149 6.98884 20.8946L12.8958 26.7518C13.2283 27.0827 13.7685 27.0827 14.101 26.7519ZM8.443 19.9402L8.43795 2.90281L12.8722 7.29993C13.041 7.46788 13.2621 7.54891 13.4832 7.54722C13.7044 7.54975 13.9255 7.46788 14.0943 7.29993L18.5648 2.86654V19.9182L13.4926 24.9475L8.443 19.9402Z" fill="#DF1E6F"/>
</g>
<defs>
<clipPath id="clip0_14_201">
<rect width="27" height="27" fill="white"/>
</clipPath>
</defs>
</svg>
