<svg width="18" height="18" viewBox="0 0 18 18" fill="none" xmlns="http://www.w3.org/2000/svg">
<g clip-path="url(#clip0_49_90)">
<path d="M9.00397 4.95708C6.44862 4.95708 4.38746 6.76059 4.38746 8.99653C4.38746 11.2325 6.44862 13.036 9.00397 13.036C11.5593 13.036 13.6205 11.2325 13.6205 8.99653C13.6205 6.76059 11.5593 4.95708 9.00397 4.95708ZM9.00397 11.6227C7.35263 11.6227 6.00263 10.445 6.00263 8.99653C6.00263 7.54809 7.34862 6.37036 9.00397 6.37036C10.6593 6.37036 12.0053 7.54809 12.0053 8.99653C12.0053 10.445 10.6553 11.6227 9.00397 11.6227ZM14.8861 4.79184C14.8861 5.31567 14.404 5.73403 13.8093 5.73403C13.2107 5.73403 12.7325 5.31216 12.7325 4.79184C12.7325 4.27153 13.2147 3.84966 13.8093 3.84966C14.404 3.84966 14.8861 4.27153 14.8861 4.79184ZM17.9437 5.74809C17.8754 4.48598 17.5459 3.36802 16.4892 2.44692C15.4366 1.52583 14.1589 1.23755 12.7165 1.17427C11.2299 1.10044 6.77406 1.10044 5.28746 1.17427C3.84907 1.23403 2.57139 1.52231 1.51469 2.44341C0.457997 3.3645 0.132551 4.48247 0.0602294 5.74458C-0.0241455 7.04536 -0.0241455 10.9442 0.0602294 12.245C0.128533 13.5071 0.457997 14.625 1.51469 15.5461C2.57139 16.4672 3.84505 16.7555 5.28746 16.8188C6.77406 16.8926 11.2299 16.8926 12.7165 16.8188C14.1589 16.759 15.4366 16.4707 16.4892 15.5461C17.5419 14.625 17.8714 13.5071 17.9437 12.245C18.0281 10.9442 18.0281 7.04887 17.9437 5.74809ZM16.0232 13.6407C15.7098 14.3297 15.1031 14.8606 14.3116 15.1383C13.1263 15.5496 10.3138 15.4547 9.00397 15.4547C7.69415 15.4547 4.87764 15.5461 3.69639 15.1383C2.90889 14.8641 2.30219 14.3332 1.98478 13.6407C1.51469 12.6036 1.62317 10.1426 1.62317 8.99653C1.62317 7.85044 1.51871 5.38598 1.98478 4.35239C2.29817 3.66333 2.90487 3.13247 3.69639 2.85474C4.88165 2.44341 7.69415 2.53833 9.00397 2.53833C10.3138 2.53833 13.1303 2.44692 14.3116 2.85474C15.0991 3.12895 15.7058 3.65981 16.0232 4.35239C16.4932 5.3895 16.3848 7.85044 16.3848 8.99653C16.3848 10.1426 16.4932 12.6071 16.0232 13.6407Z" fill="white"/>
</g>
<defs>
<clipPath id="clip0_49_90">
<rect width="18" height="18" fill="white"/>
</clipPath>
</defs>
</svg>
