<svg width="18" height="15" viewBox="0 0 18 15" fill="none" xmlns="http://www.w3.org/2000/svg">
<g clip-path="url(#clip0_49_87)">
<path d="M18 2.70323C17.325 2.99078 16.6275 3.18986 15.885 3.27834C16.65 2.83594 17.235 2.12811 17.505 1.26544C16.785 1.68571 15.9975 1.97327 15.165 2.15023C14.49 1.4424 13.5225 1 12.465 1C10.4175 1 8.775 2.63687 8.775 4.62765C8.775 4.91521 8.7975 5.18065 8.865 5.44608C5.805 5.31336 3.105 3.85346 1.2825 1.66359C-0.0224999 3.96406 1.44 5.86636 2.4075 6.50783C1.8225 6.50783 1.2375 6.33088 0.7425 6.06544C0.7425 7.85714 2.025 9.33917 3.69 9.67097C3.33 9.78157 2.52 9.84793 2.025 9.73733C2.4975 11.1751 3.87 12.2369 5.4675 12.259C4.2075 13.2323 2.3625 14.0065 0 13.7631C1.6425 14.8028 3.5775 15.4 5.67 15.4C12.465 15.4 16.155 9.87005 16.155 5.09217C16.155 4.93733 16.155 4.78249 16.1325 4.62765C16.8975 4.07465 17.5275 3.43318 18 2.70323Z" fill="white"/>
</g>
<defs>
<clipPath id="clip0_49_87">
<rect width="18" height="15" fill="white"/>
</clipPath>
</defs>
</svg>
