<svg width="10" height="18" viewBox="0 0 10 18" fill="none" xmlns="http://www.w3.org/2000/svg">
<path d="M2.78422 10.1602C2.71462 10.1602 1.18329 10.1602 0.487239 10.1602C0.116009 10.1602 0 10.0251 0 9.68713C0 8.78598 0 7.86232 0 6.9612C0 6.60075 0.139211 6.48811 0.487239 6.48811H2.78422C2.78422 6.42052 2.78422 5.11389 2.78422 4.50563C2.78422 3.60451 2.94664 2.74844 3.41067 1.95995C3.89791 1.14894 4.59397 0.608261 5.47564 0.292866C6.05568 0.0901127 6.63573 0 7.26218 0H9.53596C9.86079 0 10 0.135169 10 0.450563V3.01877C10 3.33417 9.86079 3.46934 9.53596 3.46934C8.90951 3.46934 8.28306 3.46934 7.65661 3.49187C7.03016 3.49187 6.70534 3.78473 6.70534 4.41552C6.68213 5.09137 6.70534 5.74468 6.70534 6.44305H9.39675C9.76798 6.44305 9.90719 6.57822 9.90719 6.93868V9.66458C9.90719 10.0251 9.79118 10.1377 9.39675 10.1377C8.56148 10.1377 6.77494 10.1377 6.70534 10.1377V17.4819C6.70534 17.8648 6.58933 18 6.17169 18C5.19722 18 4.24594 18 3.27146 18C2.92343 18 2.78422 17.8648 2.78422 17.5269C2.78422 15.1615 2.78422 10.2278 2.78422 10.1602Z" fill="white"/>
</svg>
